<svg width="137" height="147" viewBox="0 0 137 147" fill="none" xmlns="http://www.w3.org/2000/svg">
<path d="M131.777 8.30583L128.613 5.1417C121.757 -1.7139 110.155 -1.7139 103.3 5.1417L96.9714 11.47C85.8969 6.19641 73.2404 4.08699 60.0566 5.66906C28.9427 9.36054 4.15701 34.1462 0.46553 65.2601C-4.28066 106.921 27.888 142.254 68.4942 142.254C80.096 142.254 91.1705 139.617 100.663 134.344L112.265 145.945C112.792 146.473 113.319 147 113.847 147H114.374H114.901C115.429 147 115.429 147 115.956 147C116.483 147 116.483 147 117.011 147H117.538H118.066C118.593 147 119.12 146.473 119.648 145.945C120.175 145.418 120.702 144.891 120.702 144.363V143.836V143.309V142.781V117.996C130.722 105.866 136.523 90.5731 136.523 74.2251C136.523 61.0413 132.831 49.4395 126.503 38.8924L131.777 33.6188C138.632 26.7632 138.632 15.1614 131.777 8.30583ZM121.23 78.9713H126.503C124.921 96.374 115.429 111.667 101.718 121.16C99.6081 122.742 97.4987 123.796 95.3893 124.851C89.061 128.015 81.6781 130.652 74.2951 131.179V125.906C74.2951 123.269 71.6584 120.632 69.0216 120.632C66.3848 120.632 63.748 123.269 63.748 125.906V131.179C35.7983 128.543 13.6494 106.394 11.0126 78.4439H16.2862C18.9229 78.4439 21.5597 75.8072 21.5597 73.1704C21.5597 70.5336 18.9229 67.8969 16.2862 67.8969H10.4853C13.122 40.4744 35.2709 18.3256 63.2207 15.6888V20.9623C63.2207 23.5991 65.8575 26.2359 68.4942 26.2359C71.131 26.2359 73.7678 23.5991 73.7678 20.9623V15.6888C101.718 18.3256 123.866 40.4744 126.503 68.4242H121.23C118.593 68.4242 115.956 71.061 115.956 73.6978C115.956 76.3345 118.593 78.9713 121.23 78.9713Z" fill="#DD086C"/>
</svg>
