<svg width="17" height="21" viewBox="0 0 17 21" fill="none" xmlns="http://www.w3.org/2000/svg">
<path d="M1.05 0H15.7501C16.0285 0 16.2956 0.110625 16.4925 0.307539C16.6894 0.504453 16.8001 0.771526 16.8001 1.05V19.9501C16.8001 20.2286 16.6894 20.4956 16.4925 20.6925C16.2956 20.8895 16.0285 21.0001 15.7501 21.0001H1.05C0.771526 21.0001 0.504453 20.8895 0.307539 20.6925C0.110625 20.4956 0 20.2286 0 19.9501V1.05C0 0.771526 0.110625 0.504453 0.307539 0.307539C0.504453 0.110625 0.771526 0 1.05 0ZM5.25002 9.45004V6.30002L0 10.5L5.25002 14.7001V11.55H11.55V9.45004H5.25002Z" fill="#161616"/>
</svg>
