<svg width="25" height="28" viewBox="0 0 25 28" fill="none" xmlns="http://www.w3.org/2000/svg">
<path d="M24.415 6.89115C23.6344 5.54791 14.0583 0 12.4987 0C10.939 0 1.35925 5.53392 0.583461 6.89115C-0.192332 8.24838 -0.196639 19.3168 0.583461 20.6734C1.36356 22.0301 10.9406 27.5646 12.4987 27.5646C14.0567 27.5646 23.6344 22.0237 24.4145 20.6734C25.1946 19.3232 25.1956 8.23708 24.415 6.89115ZM15.7273 22.3004C15.512 22.3004 13.5248 20.3747 13.6815 20.2174C13.7283 20.1706 14.0185 20.1378 14.6263 20.1189C14.6263 18.7068 14.6581 16.4262 14.6769 15.4717C14.6769 15.364 14.6532 15.287 14.6532 15.1568H10.35C10.35 15.539 10.3253 17.1057 10.4238 19.0804C10.4362 19.3248 10.3387 19.4034 10.1148 19.4002C9.56941 19.4002 9.0235 19.3943 8.4776 19.3959C8.25686 19.3959 8.16157 19.3135 8.16857 19.0669C8.2181 17.2666 8.33008 14.5446 8.16049 7.61741V7.44675C7.63989 7.42791 7.27864 7.39291 7.23127 7.34769C7.07406 7.19048 9.0908 5.26473 9.30346 5.26473C9.51611 5.26473 11.5199 7.19102 11.3638 7.34769C11.317 7.39453 10.9385 7.42791 10.461 7.44675V7.61687C10.3307 9.00318 10.3533 11.9018 10.3194 13.2908H14.6403C14.6403 13.0458 14.6613 11.4205 14.5757 8.78783C14.5703 8.60532 14.6269 8.50949 14.8024 8.50788C15.3984 8.50357 15.9949 8.50088 16.5914 8.50465C16.7777 8.50465 16.8374 8.59725 16.8337 8.79429C16.6355 19.0928 16.797 18.3741 16.797 20.1184C17.2746 20.1372 17.7026 20.1722 17.7494 20.2174C17.9045 20.3741 15.9394 22.3004 15.7262 22.3004H15.7273Z" fill="white"/>
</svg>
