<svg width="69" height="147" viewBox="0 0 69 147" fill="none" xmlns="http://www.w3.org/2000/svg">
<path d="M68.311 26.1421V5.12332C58.3271 5.12332 48.3432 7.2252 39.9356 11.429L33.63 5.12332C26.7989 -1.70777 15.2386 -1.70777 8.4075 5.12332L5.25469 8.27614C-1.57641 15.1072 -1.57641 26.6676 5.25469 33.4987L9.98391 38.2279C3.67828 48.7373 0 60.2976 0 73.4343C0 89.7239 5.78016 104.962 15.7641 117.048V141.745C15.7641 142.271 15.7641 142.796 15.7641 143.322V143.847C15.7641 143.847 15.7641 143.847 15.7641 144.373C15.7641 144.898 16.2895 145.424 16.815 145.949C17.3405 146.475 17.8659 146.475 18.3914 147C18.3914 147 18.3914 147 18.9169 147H19.4424C19.9678 147 20.4933 147 21.0188 147C21.5442 147 22.0697 147 22.5952 147H23.1206C23.1206 147 23.1206 147 23.6461 147C24.1716 147 24.697 146.475 25.2225 145.949L36.7828 134.389C46.2413 139.643 57.2761 142.271 68.8364 142.271V121.252C66.2091 121.252 63.5818 123.879 63.5818 126.507V131.761C55.6997 131.236 48.8686 129.134 42.563 125.456C40.4611 124.405 38.3592 122.828 36.2574 121.777C22.5952 112.319 13.1367 97.0804 11.5603 79.7399H16.815C19.4424 79.7399 22.0697 77.1126 22.0697 74.4853C22.0697 71.8579 19.4424 69.2306 16.815 69.2306H10.5094C13.1367 40.3298 35.2064 18.2601 63.0563 15.6327V20.8874C63.0563 23.5147 65.6836 26.1421 68.311 26.1421Z" fill="#DD086C"/>
</svg>
