<svg width="683" height="490" viewBox="0 0 683 490" fill="none" xmlns="http://www.w3.org/2000/svg">
<g clip-path="url(#clip0_217_267)">
<path d="M348.822 488.962C369.364 488.962 386.017 472.009 386.017 451.096C386.017 430.183 369.364 413.23 348.822 413.23C328.28 413.23 311.627 430.183 311.627 451.096C311.627 472.009 328.28 488.962 348.822 488.962Z" fill="#015EBF"/>
<path d="M571.029 486.834C591.838 480.472 613.96 473.838 630.463 458.714C645.21 445.199 655.166 424.561 649.057 404.293C642.96 384.066 624.698 370.579 605.844 363.871C595.15 360.067 583.963 357.956 572.78 356.298C560.622 354.495 548.412 353.019 536.207 351.597C486.787 345.843 437.181 342.328 387.39 341.052C362.821 340.422 338.257 340.437 313.684 340.8C291.74 341.124 268.628 341.116 248.27 331.621C232.439 324.238 218.07 310.804 213.659 293.152C208.567 272.775 217.959 252.023 231.432 237.265C238.534 229.486 246.834 222.939 255.396 216.919C264.685 210.388 274.297 204.319 284.118 198.654C303.46 187.503 323.682 178.012 344.574 170.281C354.88 166.466 365.339 163.175 375.889 160.138C384.797 157.574 393.733 155.007 402.343 151.514C418.986 144.761 434.817 133.322 439.048 114.569C443.059 96.7952 436.297 77.5008 424.441 64.2973C410.725 49.0218 390.044 42.3255 370.217 41.242C347.957 40.0257 326.211 45.697 305.289 52.8947C282.975 60.5715 261.141 69.3986 238.355 75.6167C215.76 81.7768 192.727 86.1354 169.466 88.6529C158.079 89.8872 146.348 91.281 134.894 90.3361C125.294 89.5441 115.743 86.6699 108.668 79.734C102.601 73.7868 98.9875 65.6133 100.23 56.9879C100.456 55.4212 102.793 56.0873 102.569 57.6444C101.057 68.144 108.067 77.8191 116.707 82.7751C126.691 88.503 138.841 88.5108 149.958 87.8557C174.061 86.3737 198.001 82.8505 221.53 77.3228C244.65 71.947 266.944 64.2621 289.212 56.0529C310.362 48.2562 331.984 40.6466 354.579 38.9579C374.185 37.4926 394.808 40.4003 411.888 50.8306C426.898 59.9973 437.936 75.2846 441.454 92.827C444.891 109.969 440.131 127.223 427.384 139.185C414.187 151.571 396.091 156.866 379.227 161.743C357.838 167.929 336.907 175.159 316.648 184.548C296.112 194.037 276.418 205.309 257.782 218.238C239.794 230.752 222.042 246.498 216.352 268.823C213.702 279.222 214.192 290.252 218.626 300.074C222.569 308.808 229.062 316.154 236.627 321.821C254.675 335.341 277.422 338.117 299.223 338.393C323.709 338.703 348.195 337.862 372.688 338.271C422.605 339.105 472.419 342.198 522.132 347.551C534.588 348.893 547.029 350.377 559.454 352.002C570.63 353.464 581.844 354.916 592.832 357.512C612.369 362.129 631.381 371.005 643.524 387.869C648.914 395.179 652.253 403.841 653.185 412.931C654.035 422.417 651.753 431.921 647.54 440.36C638.215 459.038 620.749 470.918 602.2 478.723C592.265 482.904 581.959 486.071 571.674 489.216C570.176 489.674 569.535 487.291 571.029 486.834L571.029 486.834Z" fill="#F2F2F2"/>
<path d="M101.796 76.9662C112.514 76.9662 121.203 68.1211 121.203 57.2102C121.203 46.2992 112.514 37.4541 101.796 37.4541C91.0785 37.4541 82.39 46.2992 82.39 57.2102C82.39 68.1211 91.0785 76.9662 101.796 76.9662Z" fill="#F2F2F2"/>
<path d="M236.427 114.42C247.145 114.42 255.834 105.575 255.834 94.6643C255.834 83.7533 247.145 74.9083 236.427 74.9083C225.709 74.9083 217.021 83.7533 217.021 94.6643C217.021 105.575 225.709 114.42 236.427 114.42Z" fill="#F2F2F2"/>
<path d="M350.439 39.512C361.157 39.512 369.845 30.667 369.845 19.756C369.845 8.84507 361.157 0 350.439 0C339.721 0 331.033 8.84507 331.033 19.756C331.033 30.667 339.721 39.512 350.439 39.512Z" fill="#F2F2F2"/>
<path d="M421.595 123.475C432.313 123.475 441.002 114.63 441.002 103.719C441.002 92.8081 432.313 83.9631 421.595 83.9631C410.878 83.9631 402.189 92.8081 402.189 103.719C402.189 114.63 410.878 123.475 421.595 123.475Z" fill="#F2F2F2"/>
<path d="M325.373 220.609C336.09 220.609 344.779 211.764 344.779 200.853C344.779 189.942 336.09 181.097 325.373 181.097C314.655 181.097 305.966 189.942 305.966 200.853C305.966 211.764 314.655 220.609 325.373 220.609Z" fill="#F2F2F2"/>
<path d="M203.275 267.529C213.993 267.529 222.681 258.684 222.681 247.773C222.681 236.863 213.993 228.017 203.275 228.017C192.557 228.017 183.869 236.863 183.869 247.773C183.869 258.684 192.557 267.529 203.275 267.529Z" fill="#F2F2F2"/>
<path d="M332.65 340.791C343.368 340.791 352.056 331.946 352.056 321.035C352.056 310.124 343.368 301.279 332.65 301.279C321.932 301.279 313.244 310.124 313.244 321.035C313.244 331.946 321.932 340.791 332.65 340.791Z" fill="#F2F2F2"/>
<path d="M471.728 381.95C482.446 381.95 491.135 373.105 491.135 362.194C491.135 351.283 482.446 342.438 471.728 342.438C461.011 342.438 452.322 351.283 452.322 362.194C452.322 373.105 461.011 381.95 471.728 381.95Z" fill="#F2F2F2"/>
<path d="M634.256 372.895C644.974 372.895 653.662 364.05 653.662 353.139C653.662 342.228 644.974 333.383 634.256 333.383C623.538 333.383 614.85 342.228 614.85 353.139C614.85 364.05 623.538 372.895 634.256 372.895Z" fill="#F2F2F2"/>
<path d="M344.838 55.9782C286.706 56.3962 239.109 104.487 238.283 163.662C238.275 164.208 238.272 168.05 238.272 173.074C238.273 180.441 241.148 187.506 246.264 192.716C251.381 197.925 258.321 200.852 265.557 200.853H265.558C269.145 200.852 272.697 200.132 276.01 198.733C279.324 197.334 282.334 195.284 284.87 192.701C287.405 190.117 289.415 187.05 290.786 183.675C292.156 180.3 292.86 176.684 292.857 173.032C292.854 169.614 292.852 167.248 292.852 167.103C292.85 157.958 295.187 148.969 299.632 141.022C304.078 133.075 310.479 126.443 318.206 121.778C325.933 117.113 334.719 114.576 343.701 114.417C352.684 114.258 361.552 116.482 369.433 120.87C377.315 125.258 383.939 131.659 388.654 139.444C393.368 147.229 396.011 156.129 396.322 165.269C396.633 174.408 394.601 183.473 390.427 191.571C386.253 199.67 380.08 206.522 372.515 211.455L372.525 211.466C372.525 211.466 333.689 236.918 321.849 271.834L321.859 271.836C319.777 278.989 318.722 286.411 318.727 293.871C318.727 296.937 318.904 323.769 319.247 345.547C319.367 353.062 322.383 360.227 327.646 365.497C332.909 370.767 339.996 373.72 347.378 373.718H347.378C351.087 373.718 354.76 372.971 358.185 371.52C361.61 370.07 364.719 367.944 367.334 365.266C369.948 362.587 372.017 359.409 373.421 355.914C374.824 352.418 375.535 348.675 375.512 344.898C375.393 324.954 375.329 301.73 375.329 300.045C375.329 278.605 395.645 257.244 412.333 243.314C431.55 227.273 445.379 205.413 450.933 180.754C452.162 175.677 452.84 170.478 452.954 165.251C452.954 150.834 450.152 136.56 444.709 123.251C439.266 109.941 431.29 97.8601 421.24 87.7028C411.19 77.5456 399.265 69.5132 386.153 64.0684C373.04 58.6236 358.999 55.8741 344.838 55.9782Z" fill="#015EBF"/>
<path d="M682.037 490H0.96256C0.707698 489.999 0.463532 489.896 0.283578 489.712C0.103624 489.528 0.00256348 489.279 0.00256348 489.02C0.00256348 488.761 0.103624 488.512 0.283578 488.328C0.463532 488.144 0.707698 488.041 0.96256 488.04H682.037C682.292 488.04 682.537 488.143 682.718 488.327C682.898 488.511 683 488.76 683 489.02C683 489.28 682.898 489.529 682.718 489.713C682.537 489.897 682.292 490 682.037 490Z" fill="#3F3D56"/>
<path d="M508.16 224.721C521.558 224.721 532.418 213.665 532.418 200.026C532.418 186.388 521.558 175.331 508.16 175.331C494.763 175.331 483.903 186.388 483.903 200.026C483.903 213.665 494.763 224.721 508.16 224.721Z" fill="#2F2E41"/>
<path d="M463.335 479.19H453.422L448.705 440.264H463.337L463.335 479.19Z" fill="#A0616A"/>
<path d="M446.341 476.306H465.459V488.56H434.303C434.303 486.951 434.615 485.358 435.22 483.871C435.824 482.384 436.711 481.033 437.829 479.895C438.947 478.757 440.274 477.855 441.734 477.239C443.195 476.623 444.76 476.306 446.341 476.306Z" fill="#2F2E41"/>
<path d="M540.151 479.19H530.238L525.522 440.264H540.153L540.151 479.19Z" fill="#A0616A"/>
<path d="M523.157 476.306H542.275V488.56H511.12C511.12 486.951 511.431 485.358 512.036 483.871C512.641 482.384 513.528 481.033 514.645 479.895C515.763 478.757 517.09 477.855 518.551 477.239C520.011 476.623 521.576 476.306 523.157 476.306Z" fill="#2F2E41"/>
<path d="M504.474 224.866C515.442 224.866 524.334 215.814 524.334 204.648C524.334 193.482 515.442 184.43 504.474 184.43C493.506 184.43 484.614 193.482 484.614 204.648C484.614 215.814 493.506 224.866 504.474 224.866Z" fill="#A0616A"/>
<path d="M516.311 290.089L525.197 269.304C527.356 264.428 527.974 258.991 526.968 253.742C525.961 248.493 523.379 243.691 519.578 239.999C518.797 239.214 517.968 238.48 517.095 237.801C512.711 234.31 507.307 232.406 501.74 232.393C497.997 232.408 494.301 233.245 490.905 234.846C490.614 234.978 490.331 235.118 490.04 235.258C489.482 235.53 488.932 235.826 488.398 236.13C484.917 238.165 481.955 241.004 479.75 244.419C477.544 247.833 476.158 251.728 475.703 255.788L471.782 289.241C470.795 291.867 435.605 386.696 447.912 459.094C448.043 459.867 448.413 460.577 448.969 461.121C449.525 461.664 450.237 462.012 451.001 462.115L463.478 463.843C464.389 463.97 465.313 463.741 466.065 463.202C466.816 462.663 467.339 461.854 467.529 460.938L488.463 359.35C488.594 358.719 488.928 358.151 489.413 357.736C489.898 357.321 490.506 357.084 491.139 357.062C491.773 357.04 492.395 357.235 492.906 357.616C493.418 357.996 493.789 358.54 493.961 359.161L523.54 465.992C523.751 466.768 524.206 467.452 524.835 467.94C525.465 468.428 526.234 468.692 527.025 468.692C527.261 468.69 527.496 468.668 527.729 468.626L542.97 465.638C543.856 465.469 544.649 464.97 545.192 464.237C545.735 463.505 545.989 462.592 545.906 461.678C543.666 436.251 531.763 308.882 516.311 290.089Z" fill="#2F2E41"/>
<path d="M427.293 221.473C427.155 222.675 427.278 223.893 427.653 225.042C428.027 226.19 428.645 227.241 429.462 228.12C430.278 229 431.275 229.686 432.38 230.131C433.485 230.576 434.673 230.768 435.86 230.695L446.961 257.854L455.358 245.182L443.529 221.334C443.276 219.313 442.304 217.457 440.797 216.116C439.29 214.776 437.352 214.045 435.351 214.062C433.349 214.079 431.424 214.843 429.939 216.209C428.454 217.575 427.512 219.448 427.293 221.473L427.293 221.473Z" fill="#A0616A"/>
<path d="M503.373 317.435C504.553 317.291 505.688 316.886 506.698 316.248C507.708 315.609 508.568 314.753 509.217 313.74C509.867 312.726 510.29 311.58 510.458 310.382C510.625 309.184 510.533 307.963 510.186 306.805L533.543 289.487L519.481 284.127L499.457 301.394C497.585 302.115 496.038 303.51 495.109 305.314C494.18 307.119 493.934 309.208 494.416 311.185C494.899 313.162 496.077 314.891 497.728 316.043C499.379 317.194 501.387 317.69 503.373 317.435Z" fill="#A0616A"/>
<path d="M465.297 275.96C464.402 275.959 463.509 275.869 462.63 275.692C460.506 275.28 458.513 274.343 456.829 272.962C455.144 271.582 453.819 269.801 452.97 267.776L437.417 248.47C437.088 248.062 436.849 247.587 436.715 247.077C436.581 246.567 436.556 246.034 436.641 245.513C436.726 244.992 436.919 244.496 437.208 244.058C437.497 243.619 437.874 243.249 438.315 242.971L449.38 235.998C449.789 235.741 450.243 235.568 450.718 235.49C451.192 235.413 451.677 235.431 452.144 235.545C452.612 235.659 453.052 235.867 453.44 236.155C453.828 236.443 454.157 236.807 454.406 237.225L465.368 255.609L486.36 239.816C488.031 238.924 489.962 238.673 491.8 239.111C493.638 239.548 495.259 240.644 496.369 242.198C497.478 243.752 498.002 245.661 497.843 247.576C497.684 249.49 496.855 251.282 495.505 252.625L474.553 272.082C472.091 274.567 468.764 275.96 465.297 275.96Z" fill="#2F2E41"/>
<path d="M522.02 304.995C521.992 304.995 521.963 304.995 521.935 304.994C521.425 304.981 520.923 304.86 520.462 304.637C520 304.414 519.59 304.095 519.258 303.701L509.42 292.018C509.085 291.62 508.837 291.154 508.692 290.651C508.547 290.148 508.508 289.62 508.578 289.101C508.649 288.582 508.826 288.084 509.1 287.639C509.373 287.195 509.736 286.816 510.165 286.525L528.585 274.023L511.897 253.598C510.927 251.951 510.57 250.002 510.894 248.11C511.218 246.217 512.199 244.506 513.66 243.289C515.121 242.072 516.962 241.431 518.849 241.483C520.735 241.534 522.541 242.275 523.935 243.57L544.217 263.748C545.814 265.232 547.032 267.089 547.769 269.159C548.505 271.228 548.737 273.449 548.445 275.63C548.152 277.81 547.345 279.887 546.091 281.68C544.837 283.473 543.174 284.929 541.246 285.924L524.668 303.831C524.328 304.199 523.918 304.491 523.462 304.691C523.007 304.891 522.516 304.994 522.02 304.995Z" fill="#2F2E41"/>
<path d="M499.424 261.944C499.266 261.944 499.109 261.934 498.952 261.913C498.267 261.828 497.62 261.545 497.088 261.098C496.557 260.65 496.162 260.056 495.952 259.387L488.559 236.314C488.374 235.731 488.403 235.099 488.64 234.535C488.877 233.972 489.306 233.515 489.848 233.248L490.088 233.133C490.306 233.028 490.521 232.923 490.741 232.824C494.188 231.196 497.94 230.347 501.74 230.335C506.673 230.345 511.496 231.82 515.617 234.58C516.169 234.955 516.555 235.535 516.692 236.196C516.828 236.857 516.704 237.546 516.346 238.115L502.478 260.232C502.153 260.757 501.702 261.19 501.168 261.489C500.634 261.788 500.034 261.945 499.424 261.944Z" fill="#E6E6E6"/>
<path d="M527.285 189.002C531.669 189.002 535.223 185.384 535.223 180.921C535.223 176.458 531.669 172.84 527.285 172.84C522.902 172.84 519.348 176.458 519.348 180.921C519.348 185.384 522.902 189.002 527.285 189.002Z" fill="#2F2E41"/>
<path d="M500.074 172.039C494.499 172.039 489.151 174.294 485.209 178.307C481.266 182.321 479.051 187.765 479.051 193.441V202.496H489.991L495.223 193.441L496.793 202.496H529.992L521.098 193.441C521.098 187.765 518.883 182.321 514.94 178.307C510.998 174.294 505.65 172.039 500.074 172.039Z" fill="#2F2E41"/>
<path d="M531.365 175.386C532.243 172.591 534.06 170.202 536.498 168.637C538.935 167.072 541.836 166.431 544.691 166.828C549.75 167.689 553.75 171.829 556.133 176.452C558.516 181.075 559.616 186.25 561.218 191.21C562.82 196.17 565.092 201.157 569.137 204.367C573.181 207.578 579.388 208.449 583.36 205.146C582.906 208.588 581.401 211.798 579.057 214.321C576.713 216.845 573.649 218.554 570.298 219.208C566.948 219.862 563.48 219.426 560.386 217.964C557.292 216.501 554.728 214.085 553.056 211.057C550.96 207.261 550.419 202.812 549.797 198.503C549.176 194.195 548.368 189.737 545.866 186.205C543.364 182.673 538.679 180.366 534.704 181.975L531.365 175.386Z" fill="#2F2E41"/>
<path d="M273.262 187.714C266.025 187.713 259.085 184.786 253.969 179.577C248.852 174.367 245.977 167.302 245.976 159.935C245.976 154.911 245.98 151.069 245.987 150.523C246.217 133.313 250.474 116.407 258.406 101.208C245.375 119.369 238.209 141.205 237.901 163.694C237.894 164.24 237.89 168.081 237.891 173.106C237.891 180.473 240.766 187.538 245.883 192.747C250.999 197.957 257.939 200.884 265.176 200.884C271.122 200.882 276.905 198.904 281.647 195.25C286.388 191.597 289.829 186.468 291.445 180.642C286.449 185.203 279.973 187.722 273.262 187.714Z" fill="#3F3D56"/>
<path d="M346.687 114.51C355.053 114.917 363.197 117.385 370.42 121.701C377.642 126.018 383.728 132.055 388.154 139.293C392.58 146.532 395.215 154.756 395.831 163.259C396.447 171.762 395.027 180.291 391.693 188.112C396.516 182.346 400.061 175.588 402.086 168.3C404.112 161.012 404.569 153.366 403.429 145.881C402.288 138.397 399.575 131.251 395.476 124.931C391.376 118.611 385.986 113.265 379.673 109.257C373.36 105.25 366.273 102.675 358.894 101.709C351.515 100.743 344.018 101.408 336.914 103.659C329.811 105.91 323.267 109.694 317.73 114.752C312.193 119.811 307.793 126.025 304.829 132.972C309.951 126.837 316.39 121.982 323.647 118.781C330.905 115.58 338.787 114.119 346.687 114.51Z" fill="#3F3D56"/>
<path d="M355.082 360.579C347.7 360.581 340.613 357.628 335.35 352.358C330.087 347.088 327.071 339.922 326.951 332.408C326.609 310.63 326.431 283.798 326.431 280.732C326.426 273.272 327.481 265.85 329.563 258.697L329.553 258.695C330.783 255.104 332.268 251.61 333.996 248.24C328.69 255.438 324.468 263.4 321.468 271.865L321.477 271.868C319.395 279.021 318.341 286.442 318.345 293.902C318.345 296.969 318.523 323.801 318.865 345.579C318.985 353.093 322.001 360.258 327.264 365.528C332.527 370.799 339.614 373.751 346.996 373.75C353.083 373.749 359.005 371.738 363.875 368.021C368.744 364.303 372.298 359.079 374.004 353.131C368.832 357.932 362.082 360.589 355.082 360.579Z" fill="#3F3D56"/>
<path d="M102.32 479.565L112.233 479.564L116.95 440.638L102.318 440.639L102.32 479.565Z" fill="#FFB8B8"/>
<path d="M131.352 488.935L100.196 488.936L100.196 476.682L119.314 476.681C122.506 476.681 125.568 477.972 127.826 480.27C130.083 482.568 131.352 485.685 131.352 488.935L131.352 488.935Z" fill="#2F2E41"/>
<path d="M66.7422 479.565L76.6547 479.564L81.3713 440.638L66.7397 440.639L66.7422 479.565Z" fill="#FFB8B8"/>
<path d="M95.7737 488.935L64.618 488.936L64.6174 476.682L83.7357 476.681C86.9282 476.681 89.9901 477.972 92.2476 480.27C94.5052 482.568 95.7735 485.685 95.7737 488.935L95.7737 488.935Z" fill="#2F2E41"/>
<path d="M75.405 467.593L65.722 467.075C65.2228 467.048 64.7336 466.921 64.283 466.7C63.8324 466.48 63.4293 466.17 63.097 465.79C62.7647 465.41 62.5098 464.966 62.3471 464.485C62.1844 464.003 62.1172 463.494 62.1493 462.986L73.7224 332.542L127.018 347.183L132.152 345.757L116.095 461.234C115.958 462.103 115.535 462.898 114.894 463.489C114.253 464.079 113.434 464.429 112.571 464.482L102.133 464.977C101.611 465.006 101.089 464.925 100.599 464.739C100.11 464.552 99.6634 464.264 99.2887 463.893C98.9139 463.522 98.6188 463.076 98.4221 462.583C98.2253 462.09 98.1311 461.561 98.1455 461.029L100.037 391.721C100.046 391.401 99.9363 391.089 99.7302 390.846C99.5242 390.604 99.2364 390.449 98.9236 390.411C98.6107 390.374 98.2956 390.458 98.0402 390.645C97.7848 390.833 97.6077 391.111 97.5438 391.425L79.3044 464.532C79.1322 465.4 78.6698 466.18 77.9961 466.739C77.3224 467.298 76.479 467.602 75.6098 467.599C75.5419 467.599 75.4737 467.598 75.405 467.593Z" fill="#2F2E41"/>
<path d="M104.1 225.811C115.068 225.811 123.96 216.759 123.96 205.593C123.96 194.427 115.068 185.375 104.1 185.375C93.1318 185.375 84.2402 194.427 84.2402 205.593C84.2402 216.759 93.1318 225.811 104.1 225.811Z" fill="#FFB8B8"/>
<path d="M71.0347 264.992L73.2183 312.956L74.0077 330.406C74.0392 331.166 74.2925 331.899 74.7354 332.511C75.1782 333.123 75.7904 333.587 76.4936 333.843L127.707 352.729C128.12 352.886 128.559 352.964 129 352.96C129.505 352.963 130.004 352.862 130.47 352.663C130.935 352.465 131.356 352.173 131.708 351.805C132.06 351.437 132.336 351.001 132.518 350.522C132.701 350.043 132.787 349.532 132.771 349.019L130.672 262.778C130.534 255.702 127.975 248.897 123.437 243.536C118.899 238.175 112.666 234.594 105.812 233.41C105.317 233.333 104.813 233.256 104.309 233.187C100.059 232.65 95.7454 233.068 91.671 234.41C87.5967 235.753 83.8609 237.988 80.7264 240.959C77.4807 243.998 74.9304 247.726 73.2557 251.879C71.5809 256.031 70.8228 260.508 71.0347 264.992L71.0347 264.992Z" fill="#CCCCCC"/>
<path d="M152.171 343.159C150.96 342.776 149.853 342.11 148.94 341.215C148.026 340.32 147.33 339.219 146.909 338.002C146.487 336.784 146.351 335.483 146.511 334.202C146.67 332.921 147.122 331.696 147.83 330.625L130.463 307.115L145.45 306.171L159.644 328.641C161.164 329.837 162.221 331.539 162.631 333.45C163.041 335.36 162.777 337.356 161.885 339.088C160.994 340.82 159.531 342.178 157.755 342.922C155.979 343.666 154.002 343.75 152.171 343.159H152.171Z" fill="#FFB8B8"/>
<path d="M139.961 326.37C139.5 326.18 139.082 325.899 138.729 325.543C138.377 325.187 138.097 324.764 137.906 324.297L111.741 260.836C111.228 259.593 110.96 258.26 110.953 256.912C110.946 255.564 111.2 254.228 111.7 252.98C112.201 251.732 112.938 250.596 113.87 249.639C114.801 248.681 115.909 247.919 117.13 247.398C118.351 246.876 119.661 246.604 120.985 246.598C122.309 246.592 123.622 246.852 124.847 247.362C126.073 247.873 127.187 248.624 128.127 249.573C129.068 250.523 129.815 251.651 130.326 252.895L156.491 316.357C156.878 317.298 156.882 318.357 156.503 319.301C156.124 320.245 155.392 320.997 154.469 321.393L142.853 326.356C142.396 326.553 141.905 326.656 141.408 326.658C140.912 326.661 140.42 326.563 139.96 326.37L139.961 326.37Z" fill="#CCCCCC"/>
<path d="M97.715 324.132L122.846 275.146C123.33 274.204 124.162 273.496 125.159 273.178C126.155 272.859 127.235 272.956 128.162 273.448L164.639 292.841C165.564 293.335 166.26 294.182 166.572 295.196C166.885 296.211 166.79 297.311 166.307 298.254L141.177 347.239C140.692 348.182 139.86 348.889 138.864 349.208C137.867 349.526 136.787 349.429 135.86 348.938L99.3835 329.544C98.4581 329.051 97.7627 328.204 97.4499 327.189C97.1371 326.175 97.2324 325.075 97.715 324.132Z" fill="#3F3D56"/>
<path d="M114.568 301.751C114.122 300.543 113.404 299.458 112.472 298.582C111.54 297.706 110.42 297.065 109.201 296.708C107.982 296.351 106.698 296.29 105.451 296.528C104.205 296.766 103.03 297.298 102.021 298.08L77.9428 281.819L77.9019 297.105L100.774 310.203C102.036 311.677 103.768 312.651 105.666 312.954C107.563 313.258 109.505 312.872 111.151 311.864C112.797 310.855 114.041 309.289 114.666 307.44C115.291 305.591 115.256 303.577 114.568 301.751Z" fill="#FFB8B8"/>
<path d="M84.1248 305.189L64.4463 289.32C62.3174 288.593 60.3938 287.35 58.8406 285.699C57.2874 284.048 56.151 282.037 55.5289 279.841C54.9068 277.644 54.8176 275.327 55.2689 273.087C55.7203 270.848 56.6987 268.753 58.1203 266.983L75.9879 243.145C77.2295 241.6 78.9758 240.562 80.9074 240.22C82.839 239.878 84.8269 240.256 86.5078 241.283C88.1887 242.31 89.4503 243.919 90.0619 245.815C90.6735 247.712 90.5943 249.769 89.8388 251.611L75.7015 275.153L96.4775 285.185C96.9606 285.418 97.3896 285.753 97.7362 286.168C98.0827 286.582 98.3389 287.067 98.4878 287.59C98.6366 288.113 98.6749 288.662 98.5999 289.201C98.5249 289.74 98.3384 290.256 98.0528 290.716L89.6662 304.228C89.3827 304.684 89.0083 305.074 88.5672 305.374C88.1261 305.673 87.6282 305.875 87.1056 305.966C87.0849 305.969 87.064 305.973 87.0431 305.976C86.5297 306.055 86.0058 306.026 85.5039 305.89C85.0019 305.755 84.5326 305.516 84.1248 305.189Z" fill="#CCCCCC"/>
<path d="M89.0934 219.132C89.0082 218.878 88.9812 218.607 89.0144 218.341C89.0476 218.075 89.1402 217.821 89.2851 217.597C89.43 217.373 89.6233 217.185 89.8503 217.049C90.0772 216.913 90.3318 216.832 90.5944 216.811C91.1323 216.841 91.6587 216.981 92.1418 217.224C92.6249 217.466 93.0547 217.806 93.4052 218.223C94.1239 219.066 94.9607 219.798 95.8885 220.393C96.8492 220.886 98.1522 220.816 98.6999 219.876C99.2142 218.994 98.8618 217.812 98.5504 216.787C97.7582 214.178 97.3149 211.473 97.2325 208.744C97.1428 205.698 97.565 202.519 99.2214 200.144C101.359 197.078 105.182 195.914 108.8 195.998C112.417 196.082 115.976 197.219 119.56 197.938C120.797 198.186 122.251 198.313 123.078 197.337C123.958 196.299 123.635 194.619 123.261 193.218C122.29 189.582 121.259 185.822 119.003 182.885C116.564 179.834 113.079 177.836 109.251 177.296C105.576 176.832 101.845 177.264 98.3654 178.554C92.6962 180.373 87.7077 183.911 84.0671 188.694C80.3142 193.781 78.6925 200.174 79.5567 206.475C80.401 211.963 83.2574 216.92 87.5503 220.349L89.0934 219.132Z" fill="#2F2E41"/>
<path d="M340.627 479.726C335.343 477.383 330.667 473.822 326.966 469.324C323.266 464.826 320.643 459.514 319.304 453.808C317.966 448.101 317.948 442.156 319.253 436.441C320.558 430.726 323.15 425.399 326.824 420.878C322.564 424.045 319.015 428.097 316.411 432.766C313.807 437.436 312.209 442.616 311.722 447.962C311.235 453.309 311.871 458.7 313.587 463.777C315.303 468.854 318.06 473.502 321.675 477.412C325.29 481.321 329.681 484.403 334.556 486.453C339.431 488.503 344.678 489.474 349.95 489.302C355.222 489.13 360.397 487.818 365.132 485.454C369.868 483.09 374.056 479.727 377.417 475.589C372.174 479.49 366.019 481.925 359.564 482.651C353.109 483.376 346.58 482.368 340.627 479.726Z" fill="#3F3D56"/>
</g>
<defs>
<clipPath id="clip0_217_267">
<rect width="683" height="490" fill="white"/>
</clipPath>
</defs>
</svg>
