<svg width="22" height="22" viewBox="0 0 22 22" fill="none" xmlns="http://www.w3.org/2000/svg">
<path d="M22 20.8494L15.8546 14.704C17.3314 12.9311 18.0678 10.6572 17.9107 8.35517C17.7535 6.05317 16.715 3.90036 15.011 2.3446C13.307 0.788837 11.0689 -0.050098 8.76208 0.00231604C6.45532 0.0547301 4.25756 0.994458 2.62601 2.62601C0.994458 4.25756 0.0547301 6.45532 0.00231604 8.76208C-0.050098 11.0689 0.788837 13.307 2.3446 15.011C3.90036 16.715 6.05317 17.7535 8.35517 17.9107C10.6572 18.0678 12.9311 17.3314 14.704 15.8546L20.8494 22L22 20.8494ZM1.65657 8.9802C1.65657 7.53172 2.0861 6.11578 2.89083 4.91141C3.69556 3.70705 4.83935 2.76836 6.17757 2.21405C7.51579 1.65974 8.98832 1.51471 10.409 1.79729C11.8296 2.07988 13.1346 2.77739 14.1588 3.80161C15.183 4.82584 15.8805 6.13079 16.1631 7.55143C16.4457 8.97208 16.3007 10.4446 15.7464 11.7828C15.192 13.121 14.2534 14.2648 13.049 15.0696C11.8446 15.8743 10.4287 16.3038 8.9802 16.3038C7.03851 16.3017 5.17697 15.5294 3.80399 14.1564C2.43101 12.7834 1.65873 10.9219 1.65657 8.9802Z" fill="#8692A6"/>
</svg>
