<svg width="64" height="56" viewBox="0 0 64 56" fill="none" xmlns="http://www.w3.org/2000/svg">
<path d="M58 0H6C2.6875 0 0 2.6875 0 6V50C0 53.3125 2.6875 56 6 56H58C61.3125 56 64 53.3125 64 50V6C64 2.6875 61.3125 0 58 0ZM47.55 36.3125C48.15 36.9125 48.15 37.8875 47.55 38.4875L42.4875 43.55C41.8875 44.15 40.9125 44.15 40.3125 43.55L32 35.1625L23.6875 43.55C23.0875 44.15 22.1125 44.15 21.5125 43.55L16.45 38.4875C15.85 37.8875 15.85 36.9125 16.45 36.3125L24.8375 28L16.45 19.6875C15.85 19.0875 15.85 18.1125 16.45 17.5125L21.5125 12.45C22.1125 11.85 23.0875 11.85 23.6875 12.45L32 20.8375L40.3125 12.45C40.9125 11.85 41.8875 11.85 42.4875 12.45L47.55 17.5125C48.15 18.1125 48.15 19.0875 47.55 19.6875L39.1625 28L47.55 36.3125Z" fill="#DD086C"/>
</svg>
