<svg width="35" height="35" viewBox="0 0 35 35" fill="none" xmlns="http://www.w3.org/2000/svg">
<path fill-rule="evenodd" clip-rule="evenodd" d="M17.5 0C7.83523 0 0 7.83523 0 17.5C0 27.1648 7.83523 35 17.5 35C27.1648 35 35 27.1648 35 17.5C35 7.83523 27.1648 0 17.5 0ZM25.0855 14.5409C25.2251 14.3813 25.3315 14.1953 25.3982 13.9939C25.465 13.7925 25.4907 13.5799 25.4741 13.3684C25.4574 13.1569 25.3986 12.9509 25.3012 12.7625C25.2037 12.5741 25.0695 12.407 24.9066 12.2712C24.7436 12.1354 24.5551 12.0336 24.3522 11.9717C24.1493 11.9098 23.9361 11.8891 23.7251 11.9109C23.514 11.9326 23.3095 11.9963 23.1235 12.0983C22.9374 12.2002 22.7737 12.3384 22.6418 12.5046L15.8009 20.7121L12.2611 17.1707C11.9611 16.8809 11.5592 16.7205 11.1421 16.7242C10.725 16.7278 10.3259 16.8951 10.031 17.1901C9.73601 17.485 9.56869 17.8841 9.56507 18.3012C9.56144 18.7183 9.7218 19.1202 10.0116 19.4202L14.7843 24.193C14.9406 24.3492 15.1278 24.4711 15.3338 24.551C15.5399 24.6309 15.7603 24.667 15.9811 24.657C16.2019 24.6469 16.4182 24.591 16.6161 24.4928C16.8141 24.3945 16.9894 24.2561 17.1309 24.0864L25.0855 14.5409Z" fill="#005EBF"/>
</svg>
