<svg width="19" height="19" viewBox="0 0 19 19" fill="none" xmlns="http://www.w3.org/2000/svg">
<path d="M6.33333 19H2.11111C0.95 19 0 18.05 0 16.8889V2.11111C0 0.95 0.95 0 2.11111 0H6.33333C7.49444 0 8.44444 0.95 8.44444 2.11111V16.8889C8.44444 18.05 7.49444 19 6.33333 19ZM12.6667 19H16.8889C18.05 19 19 18.05 19 16.8889V11.6111C19 10.45 18.05 9.5 16.8889 9.5H12.6667C11.5056 9.5 10.5556 10.45 10.5556 11.6111V16.8889C10.5556 18.05 11.5056 19 12.6667 19ZM19 5.27778V2.11111C19 0.95 18.05 0 16.8889 0H12.6667C11.5056 0 10.5556 0.95 10.5556 2.11111V5.27778C10.5556 6.43889 11.5056 7.38889 12.6667 7.38889H16.8889C18.05 7.38889 19 6.43889 19 5.27778Z" fill="white"/>
</svg>
